<?xml version="1.0" encoding="UTF-8"?><svg xmlns="http://www.w3.org/2000/svg" xmlns:xlink="http://www.w3.org/1999/xlink" width="1440pt" zoomAndPan="magnify" viewBox="0 0 1440 809.999993" height="809.999993pt" preserveAspectRatio="xMidYMid meet" version="1.2"><defs><clipPath xml:id="clip1" id="clip1"><path d="M 305.167969 0 L 1115.167969 0 L 1115.167969 810 L 305.167969 810 Z M 305.167969 0 "/></clipPath></defs><g xml:id="surface1" id="surface1"><g clip-rule="nonzero" clip-path="url(#clip1)"><path style=" stroke:none;fill-rule:nonzero;fill:rgb(100%,100%,100%);fill-opacity:1;" d="M 710.164062 0 C 486.699219 0 305.167969 181.535156 305.167969 405 C 305.167969 628.464844 486.699219 810 710.164062 810 C 933.632812 810 1115.164062 628.464844 1115.164062 405 C 1115.164062 181.535156 933.632812 0 710.164062 0 Z M 710.164062 35.21875 C 914.601562 35.21875 1079.949219 200.566406 1079.949219 405 C 1079.949219 609.433594 914.601562 774.78125 710.164062 774.78125 C 505.730469 774.78125 340.382812 609.433594 340.382812 405 C 340.382812 200.566406 505.730469 35.21875 710.164062 35.21875 Z M 551.6875 176.085938 C 522.722656 176.085938 498.863281 199.945312 498.863281 228.914062 C 498.863281 257.878906 522.722656 281.738281 551.6875 281.738281 C 580.652344 281.738281 604.515625 257.878906 604.515625 228.914062 C 604.515625 199.945312 580.652344 176.085938 551.6875 176.085938 Z M 551.6875 211.304688 C 561.621094 211.304688 569.296875 218.980469 569.296875 228.914062 C 569.296875 238.847656 561.621094 246.523438 551.6875 246.523438 C 541.753906 246.523438 534.078125 238.847656 534.078125 228.914062 C 534.078125 218.980469 541.753906 211.304688 551.6875 211.304688 Z M 516.46875 299.347656 C 515.894531 299.347656 515.316406 299.375 514.746094 299.433594 C 514.171875 299.488281 513.601562 299.574219 513.035156 299.6875 C 512.46875 299.800781 511.910156 299.9375 511.359375 300.105469 C 510.808594 300.273438 510.265625 300.46875 509.730469 300.6875 C 509.199219 300.910156 508.679688 301.15625 508.167969 301.429688 C 507.660156 301.699219 507.167969 301.996094 506.6875 302.316406 C 506.207031 302.636719 505.746094 302.980469 505.300781 303.347656 C 504.851562 303.710938 504.425781 304.097656 504.019531 304.507812 C 503.609375 304.914062 503.222656 305.339844 502.859375 305.785156 C 502.492188 306.234375 502.148438 306.695312 501.828125 307.175781 C 501.507812 307.652344 501.210938 308.148438 500.941406 308.65625 C 500.667969 309.164062 500.421875 309.6875 500.203125 310.21875 C 499.980469 310.75 499.789062 311.292969 499.621094 311.84375 C 499.453125 312.398438 499.3125 312.957031 499.199219 313.523438 C 499.085938 314.085938 499.003906 314.65625 498.945312 315.230469 C 498.890625 315.804688 498.863281 316.378906 498.863281 316.957031 L 498.863281 581.085938 C 498.863281 581.664062 498.890625 582.238281 498.945312 582.8125 C 499.003906 583.386719 499.089844 583.957031 499.199219 584.523438 C 499.3125 585.089844 499.453125 585.648438 499.621094 586.199219 C 499.789062 586.75 499.980469 587.292969 500.203125 587.824219 C 500.421875 588.359375 500.671875 588.878906 500.941406 589.386719 C 501.214844 589.894531 501.511719 590.390625 501.832031 590.871094 C 502.152344 591.347656 502.492188 591.8125 502.859375 592.257812 C 503.226562 592.703125 503.613281 593.128906 504.019531 593.539062 C 504.429688 593.945312 504.855469 594.332031 505.300781 594.699219 C 505.746094 595.066406 506.210938 595.40625 506.6875 595.726562 C 507.167969 596.046875 507.660156 596.34375 508.171875 596.617188 C 508.679688 596.886719 509.199219 597.132812 509.734375 597.355469 C 510.265625 597.574219 510.808594 597.769531 511.359375 597.9375 C 511.910156 598.105469 512.46875 598.246094 513.035156 598.355469 C 513.601562 598.46875 514.171875 598.554688 514.746094 598.609375 C 515.320312 598.667969 515.894531 598.695312 516.46875 598.695312 L 586.90625 598.695312 C 587.480469 598.695312 588.058594 598.667969 588.632812 598.609375 C 589.207031 598.554688 589.773438 598.46875 590.339844 598.355469 C 590.90625 598.242188 591.464844 598.105469 592.015625 597.9375 C 592.570312 597.769531 593.109375 597.574219 593.644531 597.355469 C 594.175781 597.132812 594.699219 596.886719 595.207031 596.617188 C 595.714844 596.34375 596.207031 596.046875 596.6875 595.726562 C 597.167969 595.40625 597.628906 595.0625 598.078125 594.699219 C 598.523438 594.332031 598.949219 593.945312 599.355469 593.535156 C 599.765625 593.128906 600.152344 592.703125 600.515625 592.257812 C 600.882812 591.8125 601.226562 591.347656 601.546875 590.867188 C 601.867188 590.390625 602.164062 589.894531 602.433594 589.386719 C 602.707031 588.878906 602.953125 588.359375 603.171875 587.824219 C 603.394531 587.292969 603.589844 586.75 603.753906 586.199219 C 603.921875 585.644531 604.0625 585.085938 604.175781 584.523438 C 604.289062 583.957031 604.371094 583.386719 604.429688 582.8125 C 604.484375 582.238281 604.515625 581.664062 604.515625 581.085938 L 604.515625 316.957031 C 604.515625 316.378906 604.484375 315.804688 604.429688 315.230469 C 604.371094 314.65625 604.289062 314.085938 604.175781 313.519531 C 604.0625 312.957031 603.921875 312.398438 603.753906 311.84375 C 603.585938 311.292969 603.394531 310.75 603.171875 310.21875 C 602.953125 309.683594 602.707031 309.164062 602.433594 308.65625 C 602.160156 308.148438 601.867188 307.652344 601.546875 307.171875 C 601.222656 306.695312 600.882812 306.230469 600.515625 305.785156 C 600.148438 305.339844 599.761719 304.914062 599.355469 304.503906 C 598.949219 304.097656 598.519531 303.710938 598.074219 303.34375 C 597.628906 302.980469 597.167969 302.636719 596.6875 302.316406 C 596.207031 301.996094 595.714844 301.699219 595.203125 301.425781 C 594.695312 301.15625 594.175781 300.910156 593.644531 300.6875 C 593.109375 300.46875 592.566406 300.273438 592.015625 300.105469 C 591.464844 299.9375 590.90625 299.796875 590.339844 299.6875 C 589.773438 299.574219 589.203125 299.488281 588.628906 299.433594 C 588.058594 299.375 587.480469 299.347656 586.90625 299.347656 Z M 657.339844 299.347656 C 656.761719 299.347656 656.1875 299.375 655.613281 299.433594 C 655.039062 299.488281 654.46875 299.574219 653.90625 299.6875 C 653.339844 299.800781 652.78125 299.9375 652.226562 300.105469 C 651.675781 300.273438 651.132812 300.46875 650.601562 300.6875 C 650.066406 300.910156 649.546875 301.15625 649.039062 301.429688 C 648.53125 301.699219 648.035156 301.996094 647.558594 302.316406 C 647.078125 302.636719 646.613281 302.980469 646.167969 303.347656 C 645.722656 303.710938 645.296875 304.097656 644.886719 304.507812 C 644.480469 304.914062 644.09375 305.339844 643.726562 305.785156 C 643.363281 306.234375 643.019531 306.695312 642.699219 307.175781 C 642.378906 307.652344 642.082031 308.148438 641.808594 308.65625 C 641.539062 309.164062 641.292969 309.6875 641.070312 310.21875 C 640.851562 310.75 640.65625 311.292969 640.488281 311.84375 C 640.320312 312.398438 640.183594 312.957031 640.070312 313.523438 C 639.957031 314.085938 639.871094 314.65625 639.816406 315.230469 C 639.757812 315.804688 639.730469 316.378906 639.730469 316.957031 L 639.730469 581.085938 C 639.730469 581.664062 639.757812 582.238281 639.816406 582.8125 C 639.871094 583.386719 639.957031 583.957031 640.070312 584.523438 C 640.183594 585.089844 640.324219 585.648438 640.488281 586.199219 C 640.65625 586.75 640.851562 587.292969 641.074219 587.824219 C 641.292969 588.359375 641.539062 588.878906 641.8125 589.386719 C 642.082031 589.894531 642.378906 590.390625 642.699219 590.871094 C 643.019531 591.347656 643.363281 591.8125 643.730469 592.257812 C 644.09375 592.703125 644.480469 593.128906 644.890625 593.539062 C 645.296875 593.945312 645.722656 594.332031 646.171875 594.699219 C 646.617188 595.066406 647.078125 595.40625 647.558594 595.726562 C 648.039062 596.046875 648.53125 596.34375 649.039062 596.617188 C 649.546875 596.886719 650.070312 597.132812 650.601562 597.355469 C 651.136719 597.574219 651.675781 597.769531 652.230469 597.9375 C 652.78125 598.105469 653.339844 598.246094 653.90625 598.355469 C 654.46875 598.46875 655.039062 598.554688 655.613281 598.609375 C 656.1875 598.667969 656.761719 598.695312 657.339844 598.695312 L 727.773438 598.695312 C 728.351562 598.695312 728.925781 598.667969 729.5 598.609375 C 730.074219 598.554688 730.644531 598.46875 731.210938 598.355469 C 731.777344 598.242188 732.335938 598.105469 732.886719 597.9375 C 733.4375 597.769531 733.980469 597.574219 734.511719 597.355469 C 735.046875 597.132812 735.566406 596.886719 736.074219 596.613281 C 736.585938 596.34375 737.078125 596.046875 737.558594 595.726562 C 738.039062 595.40625 738.5 595.0625 738.945312 594.699219 C 739.390625 594.332031 739.816406 593.945312 740.226562 593.535156 C 740.632812 593.128906 741.019531 592.703125 741.386719 592.257812 C 741.753906 591.8125 742.09375 591.347656 742.414062 590.867188 C 742.734375 590.390625 743.03125 589.894531 743.304688 589.386719 C 743.574219 588.878906 743.824219 588.355469 744.042969 587.824219 C 744.265625 587.292969 744.457031 586.75 744.625 586.199219 C 744.792969 585.644531 744.933594 585.085938 745.046875 584.523438 C 745.15625 583.957031 745.242188 583.386719 745.296875 582.8125 C 745.355469 582.238281 745.382812 581.664062 745.382812 581.085938 L 745.382812 449.023438 C 745.382812 424.730469 765.113281 405 789.40625 405 C 813.695312 405 833.425781 424.730469 833.425781 449.023438 L 833.425781 581.085938 C 833.425781 581.664062 833.457031 582.238281 833.511719 582.8125 C 833.570312 583.386719 833.652344 583.957031 833.765625 584.523438 C 833.878906 585.089844 834.019531 585.648438 834.1875 586.199219 C 834.351562 586.75 834.546875 587.292969 834.769531 587.824219 C 834.988281 588.359375 835.234375 588.878906 835.507812 589.386719 C 835.777344 589.894531 836.074219 590.390625 836.394531 590.871094 C 836.714844 591.347656 837.058594 591.8125 837.425781 592.257812 C 837.789062 592.703125 838.175781 593.128906 838.585938 593.539062 C 838.992188 593.945312 839.421875 594.332031 839.867188 594.699219 C 840.3125 595.066406 840.773438 595.40625 841.253906 595.726562 C 841.734375 596.046875 842.226562 596.34375 842.734375 596.617188 C 843.246094 596.886719 843.765625 597.132812 844.296875 597.355469 C 844.832031 597.574219 845.371094 597.769531 845.925781 597.9375 C 846.476562 598.105469 847.035156 598.246094 847.601562 598.355469 C 848.167969 598.46875 848.734375 598.554688 849.308594 598.609375 C 849.882812 598.667969 850.457031 598.695312 851.035156 598.695312 L 921.46875 598.695312 C 922.046875 598.695312 922.621094 598.667969 923.195312 598.609375 C 923.769531 598.554688 924.339844 598.46875 924.90625 598.355469 C 925.472656 598.242188 926.03125 598.105469 926.582031 597.9375 C 927.132812 597.769531 927.675781 597.574219 928.210938 597.355469 C 928.742188 597.132812 929.261719 596.886719 929.769531 596.617188 C 930.28125 596.34375 930.773438 596.046875 931.253906 595.726562 C 931.734375 595.40625 932.195312 595.0625 932.640625 594.699219 C 933.085938 594.332031 933.515625 593.945312 933.921875 593.535156 C 934.328125 593.128906 934.714844 592.703125 935.082031 592.257812 C 935.449219 591.8125 935.792969 591.347656 936.113281 590.867188 C 936.433594 590.390625 936.726562 589.894531 937 589.386719 C 937.273438 588.878906 937.519531 588.359375 937.738281 587.824219 C 937.960938 587.292969 938.152344 586.75 938.320312 586.199219 C 938.488281 585.644531 938.628906 585.085938 938.742188 584.523438 C 938.851562 583.957031 938.9375 583.386719 938.996094 582.8125 C 939.050781 582.238281 939.078125 581.664062 939.078125 581.085938 L 939.078125 431.414062 C 939.078125 358.683594 879.746094 299.347656 807.015625 299.347656 C 784.359375 299.347656 764.042969 306.675781 745.382812 316.785156 C 745.378906 316.210938 745.34375 315.640625 745.28125 315.070312 C 745.222656 314.5 745.132812 313.933594 745.015625 313.375 C 744.898438 312.8125 744.753906 312.257812 744.585938 311.710938 C 744.414062 311.164062 744.214844 310.625 743.992188 310.097656 C 743.769531 309.570312 743.523438 309.054688 743.246094 308.550781 C 742.972656 308.046875 742.675781 307.558594 742.355469 307.085938 C 742.035156 306.609375 741.691406 306.152344 741.324219 305.710938 C 740.957031 305.269531 740.570312 304.847656 740.164062 304.445312 C 739.757812 304.042969 739.332031 303.660156 738.886719 303.296875 C 738.441406 302.933594 737.980469 302.597656 737.503906 302.28125 C 737.027344 301.964844 736.535156 301.671875 736.027344 301.402344 C 735.519531 301.132812 735.003906 300.890625 734.472656 300.671875 C 733.941406 300.453125 733.402344 300.261719 732.855469 300.097656 C 732.304688 299.929688 731.75 299.792969 731.1875 299.683594 C 730.625 299.570312 730.058594 299.488281 729.488281 299.429688 C 728.917969 299.375 728.347656 299.347656 727.773438 299.347656 Z M 534.078125 334.566406 L 569.296875 334.566406 L 569.296875 563.476562 L 534.078125 563.476562 Z M 674.949219 334.566406 L 710.164062 334.566406 L 710.164062 348.941406 C 710.167969 349.800781 710.230469 350.652344 710.355469 351.503906 C 710.480469 352.351562 710.664062 353.1875 710.914062 354.011719 C 711.160156 354.835938 711.464844 355.632812 711.832031 356.410156 C 712.195312 357.1875 712.613281 357.9375 713.085938 358.652344 C 713.5625 359.367188 714.085938 360.046875 714.65625 360.6875 C 715.230469 361.328125 715.847656 361.921875 716.507812 362.472656 C 717.167969 363.019531 717.863281 363.519531 718.59375 363.964844 C 719.328125 364.414062 720.089844 364.804688 720.878906 365.144531 C 721.671875 365.480469 722.480469 365.757812 723.3125 365.972656 C 724.140625 366.191406 724.984375 366.347656 725.835938 366.441406 C 726.691406 366.535156 727.546875 366.570312 728.40625 366.539062 C 729.261719 366.507812 730.113281 366.414062 730.960938 366.257812 C 731.804688 366.105469 732.632812 365.886719 733.445312 365.613281 C 734.257812 365.335938 735.046875 365 735.8125 364.609375 C 736.578125 364.21875 737.308594 363.773438 738.007812 363.273438 C 738.707031 362.773438 739.363281 362.226562 739.984375 361.632812 C 757.429688 344.871094 780.894531 334.566406 807.015625 334.566406 C 860.714844 334.566406 903.863281 377.714844 903.863281 431.414062 L 903.863281 563.476562 L 868.644531 563.476562 L 868.644531 449.023438 C 868.644531 405.519531 832.90625 369.78125 789.40625 369.78125 C 745.902344 369.78125 710.164062 405.519531 710.164062 449.023438 L 710.164062 563.476562 L 674.949219 563.476562 Z M 674.949219 334.566406 "/></g></g></svg>